<svg xmlns="http://www.w3.org/2000/svg" viewBox="0 0 815.05 298.34"><defs><style>.cls-1{fill:#ee7624;}.cls-2{fill:#ae3180;}.cls-3{fill:#63b22f;}.cls-4{fill:#00a2d4;}.cls-5{fill:#3c3c3b;}</style></defs><g id="Capa_2" data-name="Capa 2"><g id="Capa_1-2" data-name="Capa 1"><path class="cls-1" d="M254.49,237.12C204.07,306,132.24,317.74,63.32,267.31A154.63,154.63,0,0,1,21,64.76c-24.78,93,13.55,109.33,50.2,116.26,15.24,2.88,38.37,5.81,52.54,15,13,8.46,39.55,30,69.23,30.91,2.54.08,6,.38,5.88,3.83-1.51,21.79-25.2,22.32-43.25,14.1-9.08-4.48-30.67-12.53-30.95-5.61,10.93,13.74,33.88,29,68.62,20.54,17.29-5.4,31.32-19.82,37.74-23.92,12-7.63,20.49-2.64,23.5,1.12v.13Z"/><path class="cls-2" d="M69.91,0A33.51,33.51,0,0,0,54.49,3.47c-2.4,1.22-7.41,4.41-10.16,8l-4.61,6-7.27.06c-6.39.06-9.38.95-14.24,5.95A24.39,24.39,0,0,0,12,38.55c0,4.37,3,12.49,6.52,17.59l2.95,4.28,1.45,1.74,2.54,3.33c5.22,6.85,5.47,12,2.63,15.23a11.89,11.89,0,0,1-4.53,3.54,26.49,26.49,0,0,0,8.79,1.19c4.94,0,6-.86,9.07-3.37,7-5.8,6.6-12.89-1.4-25.93-2.64-4.29-7.43-10.91-9.15-13.73s-1.93-6.83-1.93-8.05c0-3.56,2.23-8,5-9.38a10.75,10.75,0,0,1,5-1.43,20.49,20.49,0,0,1,.31,4.21c0,6.43,2.31,18.14,5.46,24.54,2.25,4.59,4.78,6.34,9.45,10,7.66,6,9.49,8.25,10.19,14.14A39.48,39.48,0,0,1,65,82.76a3.72,3.72,0,0,1-1.81-.14c-3.61-1-4.09.56-4.1,6.53,0,4.17-.86,8-3.2,14.17-6.26,16.61-10.51,36-11.09,50.71l-.17,4.36c7.8,4.91,16.92,7.35,25.88,9.28,7.36,1.55,14.83,2.74,22.25,4.18l.82-1.86c1.49-3.38,1.84-7.25,2.14-11.43a30,30,0,0,1,1.49-8.86c1.16-3.5-.72-3.07-4.66-6.54-8-7-10.65-15.08-9.85-29.5C83,107.4,84,102.15,86.22,98c1.51-2.85,3.61-3.41,3.6-5s-2.07-2.8-4.94-3.93l-5-2L81,82c1.49-6.91,4.33-6.28,18.57-3.79,6.4,1.12,7.54,1,7.89-2.56.16-1.62.69-3.67,1.44-4.29s2.24-1.39,2.24-2-1.36-1.48-.52-2,2.64-.61,2.64-2.08c0-1.71-.93-5.06.27-5.7,2.69-1.44,5.33-1.2.94-6-3.86-4.19-5.77-3.74-5.08-9,.38-2.92,2-7.55,2.34-10.4.41-3.52-.45-5.36-.68-8,2.77,1.06,4.42,1.32,5.58,6.06,6-5.84,4.34-12.53,1-17.89-2-3.1-8.47-7.14-12.46-7.28a82.14,82.14,0,0,0-8.29.39C94.19,6.27,91.51,5,88.78,3.9A52.64,52.64,0,0,0,69.91,0Z"/><path class="cls-3" d="M175.9,137.44a26.59,26.59,0,0,0-8.93,1.87,19,19,0,0,0-11.89,12.37c-.47,1.43-.87,5-1.76,6.31-1.09-.14-1.71-.08-2.11.3-.75.7-.42,5.42,1.15,5a33.66,33.66,0,0,1,.33,5.49c-.33,5.53-.39,4.38-14.82,8.05a128.91,128.91,0,0,0-14.52,4.36c10.89,5.5,20.16,13.68,30,20.88-.86-2.68-1.18-3.39,2.29-4.76l5.36-2.12v4.28c0,6.33.49,12.39,3.19,12.85s9.08.72,5.38-.65c2.55-.35,5.64.06,6.64-.77.28-2.07-2.32-3.25-5-3.53a2.73,2.73,0,0,1-2.68-3.17c0-1.06-.06-3.24,1.46-4.72.91,2.56,2.28,3.64,3.71,5.48l6.79,6.6c2.26,2.37,2.82,3.14,7.36,3,2.94-.07,6.48.28,4.42-1,2.28-.52,5.67-.24,6.19-.8,0-1.76-2.45-3.08-4.52-3.23-3.06-.25-5.25.06-6.51-.73-1.53-1-2.18-3.69-3.94-7.29a95.13,95.13,0,0,0-5.66-10.1,25,25,0,0,1-3-6.74c-.86-3.47-.35-3.69,2.63-4.43,4.1-1,9.34-9.22,14.38-19.24.41-.83,1.14-3.72,2.32-6.3,1.82-2.14,2.09-8.11-1.17-11a6.77,6.77,0,0,1,.62,5.42c.07-4.23-3.76-8.49-7.05-9.39a8.53,8.53,0,0,1,3.92,4.68c-2.12-2.8-6.59-5.34-7.72-5.81a17,17,0,0,0-6.79-1.3Z"/><path class="cls-4" d="M129.67,82.19c-5.74,0-9.6,1.9-9.77,2.23-15.21-1.1-25.67,5.49-30.4,15.5-2.36,5-2.68,6.74-2.68,14.54,0,12.35,2,18.93,7.35,24.46a13.12,13.12,0,0,0,4.6,3.2,3.83,3.83,0,0,1-.83-2.71c4,3.46,8.48,5.56,8.7,6.24a11.9,11.9,0,0,1,.22,4.64c-.62.35-3.89,0-5.17,0-1.92.06-2.61,3.46-2,8.26.37,3-.63,5.33-2.46,10.44L96,172.5a122.75,122.75,0,0,1,23.9,7.1,4.53,4.53,0,0,1,.62-.54,41.09,41.09,0,0,1,9.39-3.92l5.88-1.62-2-2.48c-2.25-2.78-4.2-2.48-3.2-4.67s2.3-4.5-.25-6.78a27.54,27.54,0,0,0-5-3.08,4.52,4.52,0,0,1-1.29-.83,12.39,12.39,0,0,1,.69-3.4c1-3,2-3.05,5.26-2.35a42.35,42.35,0,0,0,7.61.79c3,0,4.09.4,5.35-3.69.56-3.15,4.12-6.61,4.85-7.33a3.19,3.19,0,0,0,.62-2.84c-.89-1-.16-2.14,1.62-3s2-2,1.23-2.78c-5.05-5.22-4.93-5.07-3.27-11a21.25,21.25,0,0,0-1.54-15.24c-1.45-2.81-1.7-2.92-1.7-2.92a12.37,12.37,0,0,1,7.8,2.49c-2.07-3.91-3-6.43-7.53-8.21,4.34-1.49,6.33.08,8.51,1.4-1.31-5.82-6.77-6.89-11.11-7.67,4.55-1.17,7.44-4.28,7.44-6.19-5.53,3.64-9.29-.4-16.85-1.37a29,29,0,0,0-3.37-.22Z"/><path class="cls-4" d="M313.64,164.87c2.19,3.5,1,6.28-3.21,6.28H298.75c-7.6,0-9.79-.88-12-5.4L273,138c-3.36-6.86-6-8.76-14.16-8.76h-3.8v35.92c0,4.53-1.46,6-6,6H237.27c-4.53,0-6-1.46-6-6V73.45c0-4.53,1.46-6,6-6h11.82c4.53,0,6,1.46,6,6v34.47h3.65l25.85-35.49c3.07-4.24,4.67-5,11.68-5H309c4.09,0,5.26,2.78,2.92,5.84l-30.23,40.6c5,2.78,9.35,7.89,13.29,15.34l18.69,35.63Z"/><path class="cls-1" d="M324.89,73.3c0-4.23,1.31-5.84,5.84-5.84h12.12c4.23,0,5.84,1.61,5.84,5.84v92c0,4.23-1.61,5.84-5.84,5.84H330.73c-4.53,0-5.84-1.61-5.84-5.84Z"/><path class="cls-3" d="M426.09,106.75c0-11.83-6.57-17.67-19.57-17.67H390.31v60.31h16.21c13,0,19.57-5.84,19.57-17.52ZM406.67,67.46c27.45,0,43.08,14.75,43.08,39.29v25.12c0,24.53-15.63,39.28-43.08,39.28H372.5c-4.53,0-6-1.46-6-6V73.45c0-4.53,1.46-6,6-6Z"/><path class="cls-2" d="M503.64,65.27c20.88,0,32.27,6.87,39.14,21.47,1.9,4.09,1,6.13-3.22,7.89l-11.1,4.81c-3.94,1.76-5.4,1-7.59-2.91-3.21-6.43-8.91-9.64-17.23-9.64C491.51,86.89,486.4,90,486.4,97c0,3.65,2,6.28,6.72,7.89s8,2.19,15.19,2.92c8.18,1,13.14,1.75,20.59,4.67A31.66,31.66,0,0,1,538,118c4.53,4.38,8.18,12,8.18,21.91s-3.94,18.25-11.68,24.24-18.4,9.2-31.69,9.2c-21.47,0-35.19-7.89-41-23.66-1.31-4.23-.29-6,3.8-7.59l10.66-3.8c4.24-1.61,5.84-1,7.74,3.51q4.61,10.06,18.84,10.07c13,0,19.42-3.79,19.42-11.53,0-6.58-7-9.2-19.71-10.52-4.68-.58-8.32-1.17-11.1-1.61A60.2,60.2,0,0,1,481,125.44a29.86,29.86,0,0,1-9.93-5.26C466.25,116.09,462,108.35,462,98c0-19.43,15.18-32.72,41.62-32.72Z"/><path class="cls-4" d="M596,142.38c-.88,0-2.78,0-5.7-.15s-5.11-.14-6.57-.14c-7.74,0-10.07,2.48-10.07,7s2.19,7.15,9.78,7.15a74.13,74.13,0,0,0,11.54-.58c.73-.15,1-.58,1-1V142.38ZM585.48,93c21.77,0,32.57,10.22,32.57,30.81v37.1c0,5.11-1.17,6.72-5.4,8.47q-8.76,3.94-27.6,3.94c-12.71,0-21.32-1.9-26.14-5.84s-7.31-9.93-7.31-18.26c0-18,9.5-23.94,34-23.94,3.8,0,7.3.14,10.37.29v-3.22c0-7.15-3.8-10.8-11.24-10.8-5.41,0-9.35,1.75-12.12,5.4-2.49,3.36-3.36,3.94-7.45,2.34l-8-3.36c-3.65-1.61-4.67-4.09-2.92-7.74C559.64,98.13,570,93,585.48,93Z"/><path class="cls-4" d="M654,165.75c0,4.09-1.32,5.4-5.41,5.4h-11.4c-3.94,0-5.25-1.31-5.25-5.4V68.49c0-4.09,1.31-5.41,5.25-5.41h11.39c4.09,0,5.41,1.32,5.41,5.41v97.26Z"/><path class="cls-4" d="M730.21,95.21c3.94,0,5.26,1.32,5.26,5.4v59c0,4.82-1,6.58-5.7,8.47-8.62,3.51-18.69,5.26-29.94,5.26q-31.55,0-31.54-30.23v-42.5c0-4.08,1.31-5.4,5.4-5.4H685c4.08,0,5.4,1.32,5.4,5.4v41.77c0,7.3,4.09,11,12.41,11a41.06,41.06,0,0,0,9.64-1,1.56,1.56,0,0,0,1-1.6v-50.1c0-4.08,1.32-5.4,5.41-5.4Z"/><path class="cls-4" d="M793,113.61a65.34,65.34,0,0,0-9.78-.87c-8.91,0-13.29,3.94-13.29,12V143c0,6.86,4.53,10.66,12.27,10.66a41.07,41.07,0,0,0,10.37-1,.66.66,0,0,0,.43-.73Zm-45.12,11.1c0-20.59,10.81-31.69,31.69-31.69A120.48,120.48,0,0,1,793,93.9V68.49c0-4.09,1.32-5.41,5.41-5.41h11.24c4.09,0,5.41,1.32,5.41,5.41v91.85c0,4.82-1,6.14-5.85,8-8,3.35-17.52,5-28.77,5-21.75,0-32.56-10.08-32.56-30.23v-18.4Z"/><path class="cls-5" d="M245.12,218.65a3.74,3.74,0,0,1,0,.61,1.21,1.21,0,0,1-.13.43.69.69,0,0,1-.22.25.57.57,0,0,1-.28.08H232.5a1.35,1.35,0,0,1-.84-.3,1.25,1.25,0,0,1-.4-1.05V196.46a1.22,1.22,0,0,1,.4-1,1.35,1.35,0,0,1,.84-.3h11.81a.53.53,0,0,1,.28.07.63.63,0,0,1,.2.25,1.93,1.93,0,0,1,.13.44,3.78,3.78,0,0,1,.05.64,3.58,3.58,0,0,1-.05.61,1.74,1.74,0,0,1-.13.42.51.51,0,0,1-.48.32h-9.74v7.81h8.36a.44.44,0,0,1,.27.09.73.73,0,0,1,.22.24,1.24,1.24,0,0,1,.12.42,4,4,0,0,1,0,.64,3.34,3.34,0,0,1,0,.59,1.25,1.25,0,0,1-.12.41.58.58,0,0,1-.22.22.6.6,0,0,1-.27.07h-8.36v8.91h9.88a.55.55,0,0,1,.28.07.74.74,0,0,1,.22.24,1.15,1.15,0,0,1,.13.43A3.82,3.82,0,0,1,245.12,218.65Z"/><path class="cls-5" d="M267.91,214.82a5.43,5.43,0,0,1-.49,2.37,4.85,4.85,0,0,1-1.39,1.75,6.44,6.44,0,0,1-2.16,1.08,10.85,10.85,0,0,1-4.51.22,10.28,10.28,0,0,1-1.5-.37,6.93,6.93,0,0,1-1.13-.46,3.12,3.12,0,0,1-.67-.43,1.1,1.1,0,0,1-.31-.54,3.85,3.85,0,0,1-.1-.94,5.08,5.08,0,0,1,0-.62,2.32,2.32,0,0,1,.1-.4.39.39,0,0,1,.16-.22.4.4,0,0,1,.24-.07,1.33,1.33,0,0,1,.63.26q.4.26,1,.57a9.49,9.49,0,0,0,1.43.56,6.17,6.17,0,0,0,1.91.26,5.57,5.57,0,0,0,1.46-.17,3.78,3.78,0,0,0,1.13-.51,2.31,2.31,0,0,0,.75-.86,2.73,2.73,0,0,0,.25-1.23,2,2,0,0,0-.37-1.23,3.55,3.55,0,0,0-1-.88,7.83,7.83,0,0,0-1.39-.69l-1.58-.62c-.55-.22-1.08-.47-1.6-.74a6.5,6.5,0,0,1-1.4-1,4.69,4.69,0,0,1-1-1.43,4.76,4.76,0,0,1-.37-2,5,5,0,0,1,.39-2,4.53,4.53,0,0,1,1.18-1.64,5.92,5.92,0,0,1,2-1.12,8.69,8.69,0,0,1,4.14-.31,7.69,7.69,0,0,1,1.25.29,6,6,0,0,1,1,.37,3.72,3.72,0,0,1,.59.36.85.85,0,0,1,.27.27.67.67,0,0,1,.1.26c0,.09,0,.21.06.35a3.84,3.84,0,0,1,0,.52,4.67,4.67,0,0,1,0,.57,1.23,1.23,0,0,1-.1.39.52.52,0,0,1-.16.23.42.42,0,0,1-.21.06,1,1,0,0,1-.5-.21,7.09,7.09,0,0,0-.85-.45A9.9,9.9,0,0,0,264,204a5.65,5.65,0,0,0-1.61-.22,5,5,0,0,0-1.42.19,2.61,2.61,0,0,0-1,.52,2,2,0,0,0-.6.8,2.35,2.35,0,0,0-.2,1,2.07,2.07,0,0,0,.38,1.26,3.61,3.61,0,0,0,1,.89,7.71,7.71,0,0,0,1.41.69l1.6.64c.55.22,1.09.46,1.62.73a6.22,6.22,0,0,1,1.41,1,4.37,4.37,0,0,1,1,1.39A4.54,4.54,0,0,1,267.91,214.82Z"/><path class="cls-5" d="M295.28,210.61a15.52,15.52,0,0,1-.49,4.08,9.09,9.09,0,0,1-1.44,3.07A6.42,6.42,0,0,1,291,219.7a7.18,7.18,0,0,1-3.21.68,6.4,6.4,0,0,1-1.43-.15,5.4,5.4,0,0,1-1.28-.48,7.45,7.45,0,0,1-1.24-.83c-.41-.33-.84-.72-1.31-1.17v8.66a.5.5,0,0,1-.07.27.63.63,0,0,1-.25.19,1.7,1.7,0,0,1-.48.11,5.82,5.82,0,0,1-.79,0,5.5,5.5,0,0,1-.77,0,1.7,1.7,0,0,1-.49-.11.47.47,0,0,1-.25-.19.5.5,0,0,1-.07-.27V202.22a.55.55,0,0,1,.06-.28.44.44,0,0,1,.23-.18,1.48,1.48,0,0,1,.44-.11,7.27,7.27,0,0,1,1.32,0,1.49,1.49,0,0,1,.43.11.47.47,0,0,1,.24.18.47.47,0,0,1,.07.28v2.33a19,19,0,0,1,1.52-1.41,9,9,0,0,1,1.47-1,7.5,7.5,0,0,1,1.52-.6,6.78,6.78,0,0,1,1.65-.2,6.65,6.65,0,0,1,3.21.73,6.13,6.13,0,0,1,2.17,2,9.27,9.27,0,0,1,1.22,3A16.35,16.35,0,0,1,295.28,210.61ZM292,211a16.62,16.62,0,0,0-.2-2.57,7.57,7.57,0,0,0-.7-2.2,4.22,4.22,0,0,0-1.32-1.54,3.62,3.62,0,0,0-2.08-.58,4.25,4.25,0,0,0-1.22.19,5.12,5.12,0,0,0-1.22.57,9.19,9.19,0,0,0-1.29,1,17,17,0,0,0-1.44,1.59v6.89a13.41,13.41,0,0,0,2.5,2.44,4.18,4.18,0,0,0,2.48.85,3.56,3.56,0,0,0,2.06-.58,4.26,4.26,0,0,0,1.4-1.54,8,8,0,0,0,.78-2.15A11.53,11.53,0,0,0,292,211Z"/><path class="cls-5" d="M321.73,210.13a1.31,1.31,0,0,1-.38,1.06,1.24,1.24,0,0,1-.86.32h-11.4a10.4,10.4,0,0,0,.29,2.6,5,5,0,0,0,1,2,4.39,4.39,0,0,0,1.76,1.27,7,7,0,0,0,2.65.44,10.54,10.54,0,0,0,2.21-.2,12,12,0,0,0,1.67-.45c.47-.17.86-.32,1.16-.45a1.76,1.76,0,0,1,.69-.2.48.48,0,0,1,.24.06.49.49,0,0,1,.16.21,1.33,1.33,0,0,1,.09.37,4.91,4.91,0,0,1,0,.59c0,.16,0,.31,0,.43a2.88,2.88,0,0,1-.05.33,1.14,1.14,0,0,1-.09.26,1.74,1.74,0,0,1-.18.22,2.85,2.85,0,0,1-.62.35,10.27,10.27,0,0,1-1.35.47,19.51,19.51,0,0,1-1.91.41,14.27,14.27,0,0,1-2.32.18,10.93,10.93,0,0,1-3.75-.59A7,7,0,0,1,308,218a7.78,7.78,0,0,1-1.66-3,13.79,13.79,0,0,1-.55-4.12,13.17,13.17,0,0,1,.57-4,8.58,8.58,0,0,1,1.67-3,7.14,7.14,0,0,1,2.63-1.9,8.45,8.45,0,0,1,3.44-.67,8.23,8.23,0,0,1,3.47.66,6.48,6.48,0,0,1,2.36,1.76,7.06,7.06,0,0,1,1.36,2.59,11.38,11.38,0,0,1,.43,3.19Zm-3.19-.95a5.83,5.83,0,0,0-1.12-3.92,4.24,4.24,0,0,0-3.47-1.43,4.51,4.51,0,0,0-2.07.45,4.35,4.35,0,0,0-1.5,1.17,5.27,5.27,0,0,0-.92,1.7,6.94,6.94,0,0,0-.37,2Z"/><path class="cls-5" d="M345.91,216.9c0,.22,0,.41,0,.57a1.93,1.93,0,0,1-.07.4,1.6,1.6,0,0,1-.11.29,2.27,2.27,0,0,1-.31.37,4.63,4.63,0,0,1-.82.59,7.87,7.87,0,0,1-1.3.64,10.78,10.78,0,0,1-1.57.45,9.22,9.22,0,0,1-5.06-.44,6.17,6.17,0,0,1-2.41-1.8,8.17,8.17,0,0,1-1.49-2.91,14.4,14.4,0,0,1-.5-4,13.65,13.65,0,0,1,.62-4.4,8.42,8.42,0,0,1,1.71-3,6.86,6.86,0,0,1,2.56-1.74,8.77,8.77,0,0,1,3.19-.57,8.43,8.43,0,0,1,1.6.15,9.39,9.39,0,0,1,1.44.41,6.61,6.61,0,0,1,1.16.58,4.26,4.26,0,0,1,.74.55,2.59,2.59,0,0,1,.32.37,1,1,0,0,1,.14.32,1.66,1.66,0,0,1,.08.41c0,.16,0,.35,0,.58a2.35,2.35,0,0,1-.17,1,.51.51,0,0,1-.43.3,1.11,1.11,0,0,1-.66-.32,10.27,10.27,0,0,0-.95-.7,7.6,7.6,0,0,0-1.4-.71,5.35,5.35,0,0,0-1.93-.31,4,4,0,0,0-3.51,1.76,8.86,8.86,0,0,0-1.23,5.11,12.16,12.16,0,0,0,.32,2.93,6.12,6.12,0,0,0,.94,2.11,3.89,3.89,0,0,0,1.51,1.26,5.45,5.45,0,0,0,4,.07,9,9,0,0,0,1.43-.76,12.3,12.3,0,0,0,1-.76,1.22,1.22,0,0,1,.65-.33.37.37,0,0,1,.23.07.64.64,0,0,1,.16.26,1.84,1.84,0,0,1,.1.47A6.12,6.12,0,0,1,345.91,216.9Z"/><path class="cls-5" d="M360.56,196.37a2.11,2.11,0,0,1-.42,1.52,2.3,2.3,0,0,1-1.56.4,2.24,2.24,0,0,1-1.53-.39,2.88,2.88,0,0,1,0-3,2.26,2.26,0,0,1,1.56-.41,2.21,2.21,0,0,1,1.53.4A2.07,2.07,0,0,1,360.56,196.37Zm-.37,23.17a.44.44,0,0,1-.07.26.7.7,0,0,1-.25.18,1.7,1.7,0,0,1-.48.11,5.82,5.82,0,0,1-.79,0,5.5,5.5,0,0,1-.77,0,1.7,1.7,0,0,1-.49-.11.46.46,0,0,1-.25-.18.44.44,0,0,1-.07-.26V202.22a.45.45,0,0,1,.07-.25.43.43,0,0,1,.25-.19,1.66,1.66,0,0,1,.49-.12,5.5,5.5,0,0,1,.77,0,5.82,5.82,0,0,1,.79,0,1.67,1.67,0,0,1,.48.12.62.62,0,0,1,.25.19.45.45,0,0,1,.07.25Z"/><path class="cls-5" d="M386,219.56a.38.38,0,0,1-.16.34,1,1,0,0,1-.42.18,5,5,0,0,1-.79,0,5.56,5.56,0,0,1-.8,0,.91.91,0,0,1-.43-.18.42.42,0,0,1-.14-.34v-1.74a8.46,8.46,0,0,1-2.53,1.89,6.67,6.67,0,0,1-2.95.67,8.23,8.23,0,0,1-2.47-.35,5.38,5.38,0,0,1-1.89-1,4.6,4.6,0,0,1-1.21-1.66,5.44,5.44,0,0,1-.43-2.23,5.15,5.15,0,0,1,.59-2.54,5,5,0,0,1,1.72-1.79,8.51,8.51,0,0,1,2.73-1.07,17.47,17.47,0,0,1,3.63-.35h2.39V208a6.71,6.71,0,0,0-.21-1.77A3.09,3.09,0,0,0,382,205a3,3,0,0,0-1.23-.77,5.74,5.74,0,0,0-1.84-.26,7.19,7.19,0,0,0-2.11.28,11.31,11.31,0,0,0-1.64.62c-.46.22-.86.43-1.17.61a1.57,1.57,0,0,1-.7.28.5.5,0,0,1-.27-.08.57.57,0,0,1-.2-.23,1.19,1.19,0,0,1-.13-.39,4.24,4.24,0,0,1,0-.53,3.06,3.06,0,0,1,.07-.76,1,1,0,0,1,.33-.53,4.21,4.21,0,0,1,.89-.59,10,10,0,0,1,1.46-.61,14.45,14.45,0,0,1,1.81-.47,11.07,11.07,0,0,1,2-.18,10.12,10.12,0,0,1,3.17.43,5.1,5.1,0,0,1,2.12,1.24,4.71,4.71,0,0,1,1.17,2,9.91,9.91,0,0,1,.37,2.83Zm-3.16-7.91h-2.71a10.09,10.09,0,0,0-2.27.22,4.7,4.7,0,0,0-1.6.65,2.78,2.78,0,0,0-.93,1,3.13,3.13,0,0,0-.3,1.4,2.79,2.79,0,0,0,.85,2.14,3.41,3.41,0,0,0,2.4.8,4.49,4.49,0,0,0,2.32-.63,10.26,10.26,0,0,0,2.24-2Z"/><path class="cls-5" d="M401.91,219.54a.45.45,0,0,1-.08.26.56.56,0,0,1-.25.18,1.55,1.55,0,0,1-.48.11,5.72,5.72,0,0,1-.79,0,5.59,5.59,0,0,1-.77,0,1.79,1.79,0,0,1-.49-.11.56.56,0,0,1-.25-.18.53.53,0,0,1-.07-.26V193.83a.54.54,0,0,1,.07-.27.5.5,0,0,1,.25-.19,1.75,1.75,0,0,1,.49-.12,5.59,5.59,0,0,1,.77,0,5.72,5.72,0,0,1,.79,0,1.51,1.51,0,0,1,.48.12.5.5,0,0,1,.25.19.46.46,0,0,1,.08.27Z"/><path class="cls-5" d="M418.22,196.37a2.11,2.11,0,0,1-.43,1.52,3.22,3.22,0,0,1-3.09,0,2.94,2.94,0,0,1,0-3,2.3,2.3,0,0,1,1.56-.41,2.18,2.18,0,0,1,1.53.4A2,2,0,0,1,418.22,196.37Zm-.37,23.17a.45.45,0,0,1-.08.26.56.56,0,0,1-.25.18,1.55,1.55,0,0,1-.48.11,5.72,5.72,0,0,1-.79,0,5.59,5.59,0,0,1-.77,0A1.79,1.79,0,0,1,415,220a.56.56,0,0,1-.25-.18.53.53,0,0,1-.06-.26V202.22a.54.54,0,0,1,.06-.25.5.5,0,0,1,.25-.19,1.75,1.75,0,0,1,.49-.12,5.59,5.59,0,0,1,.77,0,5.72,5.72,0,0,1,.79,0,1.51,1.51,0,0,1,.48.12.5.5,0,0,1,.25.19.46.46,0,0,1,.08.25Z"/><path class="cls-5" d="M445.45,219.54a.6.6,0,0,1-.06.27.58.58,0,0,1-.24.18,1.71,1.71,0,0,1-.43.1,4.11,4.11,0,0,1-.65,0,4.36,4.36,0,0,1-.68,0,2.06,2.06,0,0,1-.44-.1.62.62,0,0,1-.25-.18.5.5,0,0,1-.08-.27v-2.29a12.08,12.08,0,0,1-2.83,2.31,6.52,6.52,0,0,1-3.23.82,6.59,6.59,0,0,1-3.25-.74,6,6,0,0,1-2.18-2,8.88,8.88,0,0,1-1.23-3,16.67,16.67,0,0,1-.38-3.59,15.63,15.63,0,0,1,.48-4,9.16,9.16,0,0,1,1.42-3.07,6.29,6.29,0,0,1,2.34-2,7.21,7.21,0,0,1,3.23-.69,5.8,5.8,0,0,1,2.78.67,9.75,9.75,0,0,1,2.49,1.95V193.9a.54.54,0,0,1,.07-.26.45.45,0,0,1,.26-.19,3,3,0,0,1,.49-.11,4,4,0,0,1,.76-.05,4.42,4.42,0,0,1,.79.05,2.89,2.89,0,0,1,.48.11.65.65,0,0,1,.26.19.56.56,0,0,1,.08.26Zm-3.19-12.18a12.54,12.54,0,0,0-2.49-2.44,4.34,4.34,0,0,0-2.51-.84,3.59,3.59,0,0,0-2.06.58,4.39,4.39,0,0,0-1.38,1.52,7.33,7.33,0,0,0-.77,2.14,12.19,12.19,0,0,0-.24,2.42,16.49,16.49,0,0,0,.2,2.56,7.52,7.52,0,0,0,.7,2.22,4.32,4.32,0,0,0,1.33,1.56,3.52,3.52,0,0,0,2.08.59,4.49,4.49,0,0,0,1.22-.17,4.92,4.92,0,0,0,1.21-.58,8.72,8.72,0,0,0,1.28-1,15.74,15.74,0,0,0,1.43-1.59Z"/><path class="cls-5" d="M471.27,219.56a.4.4,0,0,1-.16.34,1,1,0,0,1-.42.18,5,5,0,0,1-.79,0,5.45,5.45,0,0,1-.8,0,.91.91,0,0,1-.43-.18.42.42,0,0,1-.14-.34v-1.74a8.59,8.59,0,0,1-2.53,1.89,6.67,6.67,0,0,1-2.95.67,8.23,8.23,0,0,1-2.47-.35,5.38,5.38,0,0,1-1.89-1,4.6,4.6,0,0,1-1.21-1.66,5.44,5.44,0,0,1-.44-2.23,5.16,5.16,0,0,1,.6-2.54,5,5,0,0,1,1.71-1.79,8.66,8.66,0,0,1,2.74-1.07,17.4,17.4,0,0,1,3.63-.35h2.39V208a6.71,6.71,0,0,0-.21-1.77,3,3,0,0,0-.69-1.28,2.87,2.87,0,0,0-1.22-.77,5.74,5.74,0,0,0-1.84-.26,7.19,7.19,0,0,0-2.11.28,11.31,11.31,0,0,0-1.64.62c-.47.22-.86.43-1.17.61a1.61,1.61,0,0,1-.7.28.46.46,0,0,1-.27-.08.67.67,0,0,1-.21-.23,1.2,1.2,0,0,1-.12-.39,2.93,2.93,0,0,1,0-.53,3.06,3.06,0,0,1,.07-.76,1,1,0,0,1,.33-.53,4.21,4.21,0,0,1,.89-.59,9.58,9.58,0,0,1,1.46-.61,14,14,0,0,1,1.81-.47,11,11,0,0,1,2-.18,10.15,10.15,0,0,1,3.18.43,5.1,5.1,0,0,1,2.12,1.24,4.81,4.81,0,0,1,1.17,2,9.91,9.91,0,0,1,.37,2.83Zm-3.16-7.91H465.4a10,10,0,0,0-2.27.22,4.62,4.62,0,0,0-1.6.65,2.72,2.72,0,0,0-.94,1,3.27,3.27,0,0,0-.29,1.4,2.79,2.79,0,0,0,.85,2.14,3.39,3.39,0,0,0,2.4.8,4.49,4.49,0,0,0,2.32-.63,10.26,10.26,0,0,0,2.24-2Z"/><path class="cls-5" d="M498.83,219.54a.5.5,0,0,1-.07.27.49.49,0,0,1-.23.18,1.82,1.82,0,0,1-.43.1,4.16,4.16,0,0,1-.66,0,4.22,4.22,0,0,1-.67,0,1.92,1.92,0,0,1-.44-.1.56.56,0,0,1-.25-.18.5.5,0,0,1-.08-.27v-2.29a12.12,12.12,0,0,1-2.84,2.31,6.45,6.45,0,0,1-3.22.82,6.56,6.56,0,0,1-3.25-.74,6.1,6.1,0,0,1-2.19-2,8.87,8.87,0,0,1-1.22-3,16.06,16.06,0,0,1-.38-3.59,15.63,15.63,0,0,1,.48-4A9,9,0,0,1,484.8,204a6.29,6.29,0,0,1,2.34-2,7.16,7.16,0,0,1,3.22-.69,5.77,5.77,0,0,1,2.78.67,9.75,9.75,0,0,1,2.49,1.95V193.9a.68.68,0,0,1,.07-.26.49.49,0,0,1,.26-.19,3.32,3.32,0,0,1,.49-.11,4.07,4.07,0,0,1,.76-.05,4.35,4.35,0,0,1,.79.05,2.47,2.47,0,0,1,.48.11.54.54,0,0,1,.26.19.48.48,0,0,1,.09.26Zm-3.2-12.18a12.54,12.54,0,0,0-2.49-2.44,4.32,4.32,0,0,0-2.51-.84,3.62,3.62,0,0,0-2.06.58,4.47,4.47,0,0,0-1.37,1.52,7.06,7.06,0,0,0-.77,2.14,12.19,12.19,0,0,0-.24,2.42,15.34,15.34,0,0,0,.2,2.56,7.23,7.23,0,0,0,.7,2.22,4.23,4.23,0,0,0,1.33,1.56,3.5,3.5,0,0,0,2.08.59,4.49,4.49,0,0,0,1.22-.17,4.7,4.7,0,0,0,1.2-.58,9.32,9.32,0,0,0,1.29-1,15.74,15.74,0,0,0,1.42-1.59Z"/><path class="cls-5" d="M526.37,210.13a1.31,1.31,0,0,1-.37,1.06,1.26,1.26,0,0,1-.86.32H513.73a10.88,10.88,0,0,0,.29,2.6,5,5,0,0,0,1,2,4.32,4.32,0,0,0,1.76,1.27,6.9,6.9,0,0,0,2.65.44,10.44,10.44,0,0,0,2.2-.2,11.63,11.63,0,0,0,1.67-.45c.47-.17.86-.32,1.16-.45a1.85,1.85,0,0,1,.69-.2.48.48,0,0,1,.24.06.51.51,0,0,1,.17.21,1.92,1.92,0,0,1,.08.37,4.91,4.91,0,0,1,0,.59,2.82,2.82,0,0,1,0,.43c0,.12,0,.23,0,.33a1.17,1.17,0,0,1-.1.26,1.63,1.63,0,0,1-.17.22,3,3,0,0,1-.63.35,9.77,9.77,0,0,1-1.35.47,19.51,19.51,0,0,1-1.91.41,14.27,14.27,0,0,1-2.32.18,10.91,10.91,0,0,1-3.74-.59,7,7,0,0,1-2.71-1.77,7.63,7.63,0,0,1-1.65-3,13.78,13.78,0,0,1-.56-4.12,12.86,12.86,0,0,1,.58-4,8.56,8.56,0,0,1,1.66-3,7.23,7.23,0,0,1,2.63-1.9,8.48,8.48,0,0,1,3.44-.67,8.31,8.31,0,0,1,3.48.66,6.44,6.44,0,0,1,2.35,1.76,7.06,7.06,0,0,1,1.36,2.59,11.38,11.38,0,0,1,.43,3.19Zm-3.19-.95a5.78,5.78,0,0,0-1.11-3.92,4.24,4.24,0,0,0-3.48-1.43,4.51,4.51,0,0,0-2.07.45,4.41,4.41,0,0,0-1.49,1.17,5.49,5.49,0,0,0-.93,1.7,7.28,7.28,0,0,0-.37,2Z"/><path class="cls-5" d="M549,214.82a5.43,5.43,0,0,1-.49,2.37,4.74,4.74,0,0,1-1.39,1.75,6.35,6.35,0,0,1-2.16,1.08,10.85,10.85,0,0,1-4.51.22,10.28,10.28,0,0,1-1.5-.37,7.32,7.32,0,0,1-1.13-.46,3.12,3.12,0,0,1-.67-.43,1.19,1.19,0,0,1-.31-.54,3.92,3.92,0,0,1-.09-.94,5.34,5.34,0,0,1,0-.62,2.32,2.32,0,0,1,.1-.4.39.39,0,0,1,.16-.22.4.4,0,0,1,.24-.07,1.29,1.29,0,0,1,.63.26q.42.26,1,.57a9.49,9.49,0,0,0,1.43.56,6.17,6.17,0,0,0,1.91.26,5.52,5.52,0,0,0,1.46-.17,3.73,3.73,0,0,0,1.14-.51,2.28,2.28,0,0,0,.74-.86,2.72,2.72,0,0,0,.26-1.23,2,2,0,0,0-.38-1.23,3.55,3.55,0,0,0-1-.88,7.83,7.83,0,0,0-1.39-.69l-1.58-.62c-.55-.22-1.08-.47-1.6-.74a6.43,6.43,0,0,1-1.39-1,4.55,4.55,0,0,1-1-1.43,4.76,4.76,0,0,1-.37-2,5,5,0,0,1,.39-2,4.55,4.55,0,0,1,1.19-1.64,5.78,5.78,0,0,1,2-1.12,8,8,0,0,1,2.76-.43,9.45,9.45,0,0,1,2.64.41,5.9,5.9,0,0,1,.95.37,4.47,4.47,0,0,1,.6.36,1.13,1.13,0,0,1,.27.27.88.88,0,0,1,.09.26c0,.09,0,.21.06.35a3.84,3.84,0,0,1,0,.52,4.67,4.67,0,0,1,0,.57,1.23,1.23,0,0,1-.1.39.52.52,0,0,1-.16.23.42.42,0,0,1-.21.06,1.06,1.06,0,0,1-.5-.21,7.09,7.09,0,0,0-.85-.45A9.33,9.33,0,0,0,545,204a5.6,5.6,0,0,0-1.61-.22A5,5,0,0,0,542,204a2.61,2.61,0,0,0-1,.52,2.14,2.14,0,0,0-.6.8,2.51,2.51,0,0,0-.2,1,2.07,2.07,0,0,0,.38,1.26,3.61,3.61,0,0,0,1,.89,8,8,0,0,0,1.41.69l1.61.64c.54.22,1.08.46,1.61.73a6.07,6.07,0,0,1,1.42,1,4.31,4.31,0,0,1,1.36,3.31Z"/><path class="cls-5" d="M591.88,202.41a8.83,8.83,0,0,1-.61,3.37,7.19,7.19,0,0,1-1.76,2.56A7.94,7.94,0,0,1,586.7,210a12.07,12.07,0,0,1-4,.58h-2.83v9a.5.5,0,0,1-.08.27.61.61,0,0,1-.27.18,4.13,4.13,0,0,1-.5.12,8,8,0,0,1-1.6,0l-.51-.12a.51.51,0,0,1-.27-.18.5.5,0,0,1-.08-.27v-23a1.35,1.35,0,0,1,.41-1.1,1.44,1.44,0,0,1,.9-.32h5.33c.54,0,1.06,0,1.55.06a17.1,17.1,0,0,1,1.75.29,7.36,7.36,0,0,1,2.06.83,6.46,6.46,0,0,1,1.78,1.49,6.58,6.58,0,0,1,1.13,2.05A8.06,8.06,0,0,1,591.88,202.41Zm-3.48.27a5.16,5.16,0,0,0-.57-2.54,4,4,0,0,0-1.4-1.52,4.84,4.84,0,0,0-1.74-.64,11.51,11.51,0,0,0-1.74-.13h-3.06v10h3a6.85,6.85,0,0,0,2.49-.39,4.53,4.53,0,0,0,1.66-1.07,4.42,4.42,0,0,0,1-1.63A6.08,6.08,0,0,0,588.4,202.68Z"/><path class="cls-5" d="M617.46,210.13a1.31,1.31,0,0,1-.37,1.06,1.26,1.26,0,0,1-.86.32H604.82a10.88,10.88,0,0,0,.29,2.6,5,5,0,0,0,1,2,4.32,4.32,0,0,0,1.76,1.27,6.9,6.9,0,0,0,2.65.44,10.44,10.44,0,0,0,2.2-.2,11.63,11.63,0,0,0,1.67-.45c.47-.17.86-.32,1.16-.45a1.85,1.85,0,0,1,.69-.2.48.48,0,0,1,.24.06.51.51,0,0,1,.17.21,1.92,1.92,0,0,1,.08.37,4.91,4.91,0,0,1,0,.59,2.82,2.82,0,0,1,0,.43c0,.12,0,.23,0,.33a1.17,1.17,0,0,1-.1.26,1.63,1.63,0,0,1-.17.22,3,3,0,0,1-.63.35,9.77,9.77,0,0,1-1.35.47,19.51,19.51,0,0,1-1.91.41,14.27,14.27,0,0,1-2.32.18,10.91,10.91,0,0,1-3.74-.59,7,7,0,0,1-2.71-1.77,7.63,7.63,0,0,1-1.65-3,13.78,13.78,0,0,1-.56-4.12,12.86,12.86,0,0,1,.58-4,8.56,8.56,0,0,1,1.66-3,7.23,7.23,0,0,1,2.63-1.9,8.48,8.48,0,0,1,3.44-.67,8.31,8.31,0,0,1,3.48.66,6.44,6.44,0,0,1,2.35,1.76,7.06,7.06,0,0,1,1.36,2.59,11.38,11.38,0,0,1,.43,3.19Zm-3.19-.95a5.78,5.78,0,0,0-1.11-3.92,4.24,4.24,0,0,0-3.48-1.43,4.51,4.51,0,0,0-2.07.45,4.41,4.41,0,0,0-1.49,1.17,5.49,5.49,0,0,0-.93,1.7,7.28,7.28,0,0,0-.37,2Z"/><path class="cls-5" d="M644,219.54a.6.6,0,0,1-.07.27.54.54,0,0,1-.23.18,1.82,1.82,0,0,1-.43.1,4.16,4.16,0,0,1-.66,0,4.22,4.22,0,0,1-.67,0,1.92,1.92,0,0,1-.44-.1.56.56,0,0,1-.25-.18.43.43,0,0,1-.08-.27v-2.29a12.12,12.12,0,0,1-2.84,2.31,6.48,6.48,0,0,1-3.22.82,6.56,6.56,0,0,1-3.25-.74,6.1,6.1,0,0,1-2.19-2,8.67,8.67,0,0,1-1.22-3,16.06,16.06,0,0,1-.39-3.59,15.63,15.63,0,0,1,.48-4A9.17,9.17,0,0,1,630,204a6.29,6.29,0,0,1,2.34-2,7.16,7.16,0,0,1,3.22-.69,5.8,5.8,0,0,1,2.78.67,9.75,9.75,0,0,1,2.49,1.95V193.9a.54.54,0,0,1,.07-.26.45.45,0,0,1,.26-.19,3.32,3.32,0,0,1,.49-.11,4.07,4.07,0,0,1,.76-.05,4.42,4.42,0,0,1,.79.05,2.67,2.67,0,0,1,.48.11.59.59,0,0,1,.26.19.48.48,0,0,1,.09.26Zm-3.2-12.18a12.54,12.54,0,0,0-2.49-2.44,4.32,4.32,0,0,0-2.51-.84,3.62,3.62,0,0,0-2.06.58,4.47,4.47,0,0,0-1.37,1.52,7.06,7.06,0,0,0-.77,2.14,11.49,11.49,0,0,0-.25,2.42,15.34,15.34,0,0,0,.21,2.56,7.23,7.23,0,0,0,.7,2.22,4.14,4.14,0,0,0,1.33,1.56,3.49,3.49,0,0,0,2.07.59,4.51,4.51,0,0,0,1.23-.17,4.7,4.7,0,0,0,1.2-.58,9.32,9.32,0,0,0,1.29-1,15.74,15.74,0,0,0,1.42-1.59Z"/><path class="cls-5" d="M660.33,196.37a2.11,2.11,0,0,1-.42,1.52,3.22,3.22,0,0,1-3.09,0,2.94,2.94,0,0,1,0-3,2.26,2.26,0,0,1,1.56-.41,2.21,2.21,0,0,1,1.53.4A2,2,0,0,1,660.33,196.37ZM660,219.54a.45.45,0,0,1-.08.26.56.56,0,0,1-.25.18,1.55,1.55,0,0,1-.48.11,5.82,5.82,0,0,1-.79,0,5.59,5.59,0,0,1-.77,0,1.79,1.79,0,0,1-.49-.11.56.56,0,0,1-.25-.18.53.53,0,0,1-.07-.26V202.22a.55.55,0,0,1,.07-.25.5.5,0,0,1,.25-.19,1.75,1.75,0,0,1,.49-.12,5.59,5.59,0,0,1,.77,0,5.82,5.82,0,0,1,.79,0,1.51,1.51,0,0,1,.48.12.5.5,0,0,1,.25.19.46.46,0,0,1,.08.25Z"/><path class="cls-5" d="M685.78,219.56a.39.39,0,0,1-.15.34,1.14,1.14,0,0,1-.43.18,5,5,0,0,1-.79,0,5.3,5.3,0,0,1-.79,0,1,1,0,0,1-.44-.18.41.41,0,0,1-.13-.34v-1.74a8.59,8.59,0,0,1-2.53,1.89,6.72,6.72,0,0,1-3,.67,8.28,8.28,0,0,1-2.47-.35,5.33,5.33,0,0,1-1.88-1,4.63,4.63,0,0,1-1.22-1.66,5.44,5.44,0,0,1-.43-2.23,5.16,5.16,0,0,1,.6-2.54,4.87,4.87,0,0,1,1.71-1.79,8.51,8.51,0,0,1,2.73-1.07,17.5,17.5,0,0,1,3.64-.35h2.38V208a6.71,6.71,0,0,0-.21-1.77,3.09,3.09,0,0,0-.68-1.28,2.87,2.87,0,0,0-1.22-.77,5.81,5.81,0,0,0-1.85-.26,7.28,7.28,0,0,0-2.11.28,11.16,11.16,0,0,0-1.63.62c-.47.22-.86.43-1.18.61a1.53,1.53,0,0,1-.7.28.5.5,0,0,1-.27-.08.65.65,0,0,1-.2-.23,1.19,1.19,0,0,1-.13-.39,4.33,4.33,0,0,1,0-.53,3.75,3.75,0,0,1,.06-.76,1.17,1.17,0,0,1,.33-.53,4.07,4.07,0,0,1,.9-.59,9.58,9.58,0,0,1,1.46-.61,13.6,13.6,0,0,1,1.81-.47,10.88,10.88,0,0,1,2-.18,10.12,10.12,0,0,1,3.17.43,5,5,0,0,1,2.12,1.24,4.71,4.71,0,0,1,1.17,2,9.57,9.57,0,0,1,.37,2.83Zm-3.16-7.91h-2.71a10.09,10.09,0,0,0-2.27.22,4.78,4.78,0,0,0-1.6.65,2.78,2.78,0,0,0-.93,1,3.13,3.13,0,0,0-.3,1.4,2.79,2.79,0,0,0,.86,2.14,3.38,3.38,0,0,0,2.39.8,4.47,4.47,0,0,0,2.32-.63,10,10,0,0,0,2.24-2Zm-1.9-17.9a1.41,1.41,0,0,1,.27-.35,1.12,1.12,0,0,1,.37-.21,2.42,2.42,0,0,1,.55-.11,6,6,0,0,1,.79,0,4.28,4.28,0,0,1,.88.07,1,1,0,0,1,.47.19.3.3,0,0,1,.11.29.59.59,0,0,1-.17.33l-3.48,4.49-.28.31a1.19,1.19,0,0,1-.29.18,1.46,1.46,0,0,1-.42.09,5.92,5.92,0,0,1-.65,0,3.9,3.9,0,0,1-.67-.05.76.76,0,0,1-.36-.16.25.25,0,0,1-.07-.25.91.91,0,0,1,.16-.36Z"/><path class="cls-5" d="M707.15,218.27a4.06,4.06,0,0,1-.08.88,1,1,0,0,1-.23.48,1.4,1.4,0,0,1-.46.29,3.38,3.38,0,0,1-.7.22q-.4.09-.84.15a7.79,7.79,0,0,1-3.19-.3,3.72,3.72,0,0,1-1.58-1.08,4.49,4.49,0,0,1-.9-1.83,11,11,0,0,1-.28-2.6V204.35h-2.42a.51.51,0,0,1-.46-.3,2.09,2.09,0,0,1-.18-1,3.53,3.53,0,0,1,0-.62A1.65,1.65,0,0,1,696,202a.54.54,0,0,1,.2-.24.64.64,0,0,1,.28-.06h2.4V197.6a.55.55,0,0,1,.07-.25.58.58,0,0,1,.25-.2,1.72,1.72,0,0,1,.49-.13c.21,0,.46,0,.77,0s.59,0,.79,0a1.48,1.48,0,0,1,.48.13.58.58,0,0,1,.25.2.46.46,0,0,1,.08.25v4.12h4.44a.46.46,0,0,1,.47.3,1.32,1.32,0,0,1,.13.41,3.64,3.64,0,0,1,0,.62,2.25,2.25,0,0,1-.17,1,.53.53,0,0,1-.47.3h-4.44V214a5.43,5.43,0,0,0,.53,2.71,2,2,0,0,0,1.89.91,3.7,3.7,0,0,0,.79-.08,5.78,5.78,0,0,0,.62-.19,4.45,4.45,0,0,0,.46-.18.83.83,0,0,1,.35-.09.41.41,0,0,1,.18,0,.28.28,0,0,1,.13.18,2,2,0,0,1,.09.37A3.15,3.15,0,0,1,707.15,218.27Z"/><path class="cls-5" d="M728.36,203.35c0,.29,0,.52,0,.72a1.63,1.63,0,0,1-.07.45.66.66,0,0,1-.15.25.32.32,0,0,1-.24.08,1,1,0,0,1-.37-.08l-.5-.18-.63-.16a3.52,3.52,0,0,0-.75-.08,2.37,2.37,0,0,0-.94.2,3.79,3.79,0,0,0-1,.63,8.41,8.41,0,0,0-1.07,1.17c-.38.49-.79,1.09-1.23,1.79v11.4a.45.45,0,0,1-.08.26.62.62,0,0,1-.25.18,1.7,1.7,0,0,1-.48.11,5.82,5.82,0,0,1-.79,0,5.5,5.5,0,0,1-.77,0,1.7,1.7,0,0,1-.49-.11.51.51,0,0,1-.25-.18.44.44,0,0,1-.07-.26V202.22a.53.53,0,0,1,.06-.26.45.45,0,0,1,.23-.19,1.28,1.28,0,0,1,.44-.12,6.75,6.75,0,0,1,.71,0,6.88,6.88,0,0,1,.71,0,1.1,1.1,0,0,1,.43.12.52.52,0,0,1,.22.19.44.44,0,0,1,.07.26v2.52a13.49,13.49,0,0,1,1.33-1.69,7.42,7.42,0,0,1,1.19-1,3.53,3.53,0,0,1,1.1-.52,4.24,4.24,0,0,1,1.11-.15l.57,0a5.67,5.67,0,0,1,.66.11c.23,0,.44.11.63.17a1.27,1.27,0,0,1,.39.19.64.64,0,0,1,.16.19.85.85,0,0,1,.06.22,1.79,1.79,0,0,1,0,.39C728.36,202.82,728.36,203.06,728.36,203.35Z"/><path class="cls-5" d="M742.42,196.37a2.06,2.06,0,0,1-.43,1.52,2.26,2.26,0,0,1-1.55.4,2.28,2.28,0,0,1-1.54-.39,2.94,2.94,0,0,1,0-3,2.3,2.3,0,0,1,1.56-.41,2.18,2.18,0,0,1,1.53.4A2,2,0,0,1,742.42,196.37Zm-.37,23.17a.38.38,0,0,1-.08.26.56.56,0,0,1-.25.18,1.55,1.55,0,0,1-.48.11,7.62,7.62,0,0,1-1.56,0,1.88,1.88,0,0,1-.49-.11.56.56,0,0,1-.25-.18.53.53,0,0,1-.06-.26V202.22a.54.54,0,0,1,.06-.25.5.5,0,0,1,.25-.19,1.85,1.85,0,0,1,.49-.12,7.62,7.62,0,0,1,1.56,0,1.51,1.51,0,0,1,.48.12.5.5,0,0,1,.25.19.39.39,0,0,1,.08.25Z"/><path class="cls-5" d="M767.27,216.9c0,.22,0,.41,0,.57a1.93,1.93,0,0,1-.07.4,1.6,1.6,0,0,1-.11.29,2.27,2.27,0,0,1-.31.37,4.63,4.63,0,0,1-.82.59,7.87,7.87,0,0,1-1.3.64,10.78,10.78,0,0,1-1.57.45,9.22,9.22,0,0,1-5.06-.44,6.17,6.17,0,0,1-2.41-1.8,8.15,8.15,0,0,1-1.48-2.91,15.55,15.55,0,0,1,.11-8.37,8.42,8.42,0,0,1,1.71-3,6.86,6.86,0,0,1,2.56-1.74,8.77,8.77,0,0,1,3.19-.57,8.43,8.43,0,0,1,1.6.15,9.39,9.39,0,0,1,1.44.41,6.61,6.61,0,0,1,1.16.58,4.26,4.26,0,0,1,.74.55,2.59,2.59,0,0,1,.32.37,1.35,1.35,0,0,1,.15.32,2.33,2.33,0,0,1,.07.41c0,.16,0,.35,0,.58a2.35,2.35,0,0,1-.17,1,.51.51,0,0,1-.43.3,1.11,1.11,0,0,1-.66-.32,10.27,10.27,0,0,0-.95-.7,7.6,7.6,0,0,0-1.4-.71,5.35,5.35,0,0,0-1.93-.31,4,4,0,0,0-3.51,1.76,8.87,8.87,0,0,0-1.22,5.11,12.19,12.19,0,0,0,.31,2.93,6.12,6.12,0,0,0,.94,2.11,3.89,3.89,0,0,0,1.51,1.26,5.45,5.45,0,0,0,4,.07,9,9,0,0,0,1.43-.76,12.3,12.3,0,0,0,1-.76,1.22,1.22,0,0,1,.65-.33.35.35,0,0,1,.23.07.64.64,0,0,1,.16.26,1.84,1.84,0,0,1,.1.47A6.12,6.12,0,0,1,767.27,216.9Z"/><path class="cls-5" d="M791.1,219.56a.38.38,0,0,1-.16.34,1,1,0,0,1-.42.18,5,5,0,0,1-.79,0,5.56,5.56,0,0,1-.8,0,.91.91,0,0,1-.43-.18.41.41,0,0,1-.13-.34v-1.74a8.59,8.59,0,0,1-2.53,1.89,6.72,6.72,0,0,1-3,.67,8.28,8.28,0,0,1-2.47-.35,5.38,5.38,0,0,1-1.89-1,4.6,4.6,0,0,1-1.21-1.66,5.44,5.44,0,0,1-.43-2.23,5.16,5.16,0,0,1,.6-2.54,4.87,4.87,0,0,1,1.71-1.79,8.51,8.51,0,0,1,2.73-1.07,17.5,17.5,0,0,1,3.64-.35h2.38V208a6.71,6.71,0,0,0-.21-1.77,3.09,3.09,0,0,0-.68-1.28,2.93,2.93,0,0,0-1.22-.77,5.81,5.81,0,0,0-1.85-.26,7.24,7.24,0,0,0-2.11.28,10.74,10.74,0,0,0-1.63.62c-.47.22-.86.43-1.18.61a1.57,1.57,0,0,1-.7.28.5.5,0,0,1-.27-.08.65.65,0,0,1-.2-.23,1.19,1.19,0,0,1-.13-.39,4.33,4.33,0,0,1,0-.53,3.75,3.75,0,0,1,.06-.76,1.17,1.17,0,0,1,.33-.53,4.21,4.21,0,0,1,.89-.59,10.18,10.18,0,0,1,1.47-.61,13.6,13.6,0,0,1,1.81-.47,10.88,10.88,0,0,1,2-.18,10.12,10.12,0,0,1,3.17.43,5.1,5.1,0,0,1,2.12,1.24,4.71,4.71,0,0,1,1.17,2,9.57,9.57,0,0,1,.37,2.83Zm-3.16-7.91h-2.71a10.09,10.09,0,0,0-2.27.22,4.78,4.78,0,0,0-1.6.65,2.78,2.78,0,0,0-.93,1,3.13,3.13,0,0,0-.3,1.4,2.79,2.79,0,0,0,.86,2.14,3.38,3.38,0,0,0,2.39.8,4.47,4.47,0,0,0,2.32-.63,10.26,10.26,0,0,0,2.24-2Z"/><path class="cls-5" d="M814.7,214.82a5.43,5.43,0,0,1-.49,2.37,4.77,4.77,0,0,1-1.4,1.75,6.3,6.3,0,0,1-2.15,1.08,10.85,10.85,0,0,1-4.51.22,10.77,10.77,0,0,1-1.51-.37,7.18,7.18,0,0,1-1.12-.46,3.12,3.12,0,0,1-.67-.43,1,1,0,0,1-.31-.54,3.41,3.41,0,0,1-.1-.94,3.64,3.64,0,0,1,0-.62,2.32,2.32,0,0,1,.1-.4.35.35,0,0,1,.16-.22.4.4,0,0,1,.24-.07,1.27,1.27,0,0,1,.62.26c.28.17.62.36,1,.57a9.49,9.49,0,0,0,1.43.56,6.15,6.15,0,0,0,1.9.26,5.6,5.6,0,0,0,1.47-.17,3.78,3.78,0,0,0,1.13-.51,2.2,2.2,0,0,0,.74-.86,2.6,2.6,0,0,0,.26-1.23,2,2,0,0,0-.37-1.23,3.55,3.55,0,0,0-1-.88,8.18,8.18,0,0,0-1.39-.69l-1.59-.62c-.54-.22-1.07-.47-1.59-.74a6.5,6.5,0,0,1-1.4-1,4.69,4.69,0,0,1-1-1.43,4.76,4.76,0,0,1-.38-2,5,5,0,0,1,.4-2,4.53,4.53,0,0,1,1.18-1.64,6,6,0,0,1,2-1.12,9.06,9.06,0,0,1,5.4,0,6.44,6.44,0,0,1,1,.37,3.72,3.72,0,0,1,.59.36.85.85,0,0,1,.27.27.67.67,0,0,1,.1.26,2.43,2.43,0,0,1,0,.35,3.84,3.84,0,0,1,0,.52,4.67,4.67,0,0,1,0,.57,1.25,1.25,0,0,1-.09.39.53.53,0,0,1-.17.23.37.37,0,0,1-.21.06,1.1,1.1,0,0,1-.5-.21,6.86,6.86,0,0,0-.84-.45,9.5,9.5,0,0,0-1.23-.45,5.52,5.52,0,0,0-1.6-.22,5.11,5.11,0,0,0-1.43.19,2.68,2.68,0,0,0-1,.52,2.11,2.11,0,0,0-.59.8,2.36,2.36,0,0,0-.21,1,2,2,0,0,0,.39,1.26,3.61,3.61,0,0,0,1,.89,7.94,7.94,0,0,0,1.4.69l1.61.64c.55.22,1.09.46,1.62.73a6.22,6.22,0,0,1,1.41,1,4.36,4.36,0,0,1,1.37,3.31Z"/></g></g></svg>